<svg width="260" height="260" xmlns="http://www.w3.org/2000/svg" xmlns:xlink="http://www.w3.org/1999/xlink" xml:space="preserve" overflow="hidden"><defs><clipPath id="clip0"><path d="M14.0001 893C14.0001 878.641 25.6407 867 40.0001 867L248 867C262.359 867 274 878.641 274 893L274 1101C274 1115.36 262.359 1127 248 1127L40.0001 1127C25.6407 1127 14.0001 1115.36 14.0001 1101Z" fill-rule="evenodd" clip-rule="evenodd"/></clipPath></defs><g transform="translate(-14 -867)"><g clip-path="url(#clip0)"><path d="M88.1075 90.7454 93.5241 90.7454 93.5241 87.4439C118.519 95.0273 130.309 113.048 129.396 142.171L123.316 142.171 123.316 162.5 143.647 162.5 143.647 142.171 137.513 142.171C138.287 115.63 129.328 96.85 110.776 86.06L150.529 93.3725C151.153 97.3055 154.542 100.203 158.524 100.208 158.584 100.208 158.638 100.192 158.695 100.192L158.524 136.771C158.524 137.519 159.13 138.125 159.878 138.125 160.305 138.125 160.706 137.924 160.962 137.583L173.447 121.897 193.527 121.515C194.274 121.515 194.881 120.908 194.881 120.161 194.881 119.734 194.68 119.333 194.339 119.077L165.021 96.9177C167.715 93.3478 167.006 88.27 163.436 85.5757 159.866 82.8817 154.788 83.5916 152.094 87.1614 151.882 87.4423 151.689 87.7364 151.515 88.0425L93.5241 77.3825 93.5241 70.4166 73.1954 70.4166 73.1954 90.7454 88.1075 90.7454ZM138.231 157.083 128.732 157.083 128.732 147.588 138.231 147.588ZM78.612 75.8333 88.1075 75.8333 88.1075 85.3287 78.612 85.3287Z" stroke="#8E4221" stroke-width="2.70833" fill="#8E4221" transform="matrix(1 0 0 1.02 14.0001 864.4)"/><path d="M227.5 40.625 32.5 40.625C26.5243 40.6429 21.6845 45.4826 21.6667 51.4583L21.6667 181.458C21.6845 187.434 26.5243 192.274 32.5 192.292L108.333 192.292 108.333 208.542 81.25 208.542 81.25 224.792 178.75 224.792 178.75 208.542 151.667 208.542 151.667 192.292 227.5 192.292C233.476 192.274 238.315 187.434 238.333 181.458L238.333 51.4583C238.315 45.4826 233.476 40.6429 227.5 40.625ZM222.083 176.042 37.9166 176.042 37.9166 56.875 222.083 56.875Z" stroke="#8E4221" stroke-width="2.70833" fill="#8E4221" transform="matrix(1 0 0 1.02 14.0001 864.4)"/></g></g></svg>