<svg width="260" height="260" xmlns="http://www.w3.org/2000/svg" xmlns:xlink="http://www.w3.org/1999/xlink" xml:space="preserve" overflow="hidden"><defs><clipPath id="clip0"><path d="M14.0001 2031C14.0001 2016.64 25.6407 2005 40.0001 2005L248 2005C262.359 2005 274 2016.64 274 2031L274 2239C274 2253.36 262.359 2265 248 2265L40.0001 2265C25.6407 2265 14.0001 2253.36 14.0001 2239Z" fill-rule="evenodd" clip-rule="evenodd"/></clipPath></defs><g transform="translate(-14 -2005)"><g clip-path="url(#clip0)"><path d="M21.6666 81.2498C21.6666 78.2706 24.1041 75.8331 27.0833 75.8331L64.9998 75.8331 64.9998 119.166 21.6666 119.166 21.6666 81.2498ZM75.8331 75.8331 119.166 75.8331 119.166 119.166 75.8331 119.166 75.8331 75.8331ZM130 75.8331 173.333 75.8331 173.333 119.166 130 119.166 130 75.8331ZM184.166 75.8331 220.187 75.8331C225.333 75.8331 229.937 79.6248 230.749 84.7706L236.979 123.229C237.52 127.291 238.062 131.354 238.062 135.416L200.416 135.416 184.166 119.166 184.166 75.8331ZM10.8333 75.8331 10.8333 173.333C10.8333 179.291 15.7083 184.166 21.6666 184.166L22.2083 184.166C21.9374 182.541 21.6666 180.645 21.6666 178.75 21.6666 163.854 33.8541 151.666 48.7499 151.666 63.6457 151.666 75.8331 163.854 75.8331 178.75 75.8331 180.645 75.5623 182.541 75.2915 184.166L173.875 184.166C173.604 182.541 173.333 180.645 173.333 178.75 173.333 163.854 185.52 151.666 200.416 151.666 215.312 151.666 227.499 163.854 227.499 178.75 227.499 180.645 227.229 182.541 226.958 184.166L238.333 184.166C244.291 184.166 249.166 179.291 249.166 173.333L249.166 138.666C249.166 132.979 248.624 127.021 247.812 121.333L241.583 82.6039C239.687 72.3123 230.749 64.729 220.187 64.729L21.6666 64.729C15.7083 64.9998 10.8333 69.8748 10.8333 75.8331Z" fill="#8E4221" transform="matrix(1 0 0 1 14.0001 2005)"/><path d="M219.374 178.75C219.374 189.22 210.886 197.708 200.416 197.708 189.946 197.708 181.458 189.22 181.458 178.75 181.458 168.279 189.946 159.791 200.416 159.791 210.886 159.791 219.374 168.279 219.374 178.75Z" fill="#8E4221" transform="matrix(1 0 0 1 14.0001 2005)"/><path d="M67.7082 178.75C67.7082 189.22 59.2202 197.708 48.7499 197.708 38.2795 197.708 29.7916 189.22 29.7916 178.75 29.7916 168.279 38.2795 159.791 48.7499 159.791 59.2202 159.791 67.7082 168.279 67.7082 178.75Z" fill="#8E4221" transform="matrix(1 0 0 1 14.0001 2005)"/></g></g></svg>