<svg width="260" height="260" xmlns="http://www.w3.org/2000/svg" xmlns:xlink="http://www.w3.org/1999/xlink" xml:space="preserve" overflow="hidden"><defs><clipPath id="clip0"><path d="M5.00016 624C5.00016 609.641 16.6408 598 31.0002 598L239 598C253.359 598 265 609.641 265 624L265 831.999C265 846.359 253.359 857.999 239 857.999L31.0002 857.999C16.6408 857.999 5.00016 846.359 5.00016 831.999Z" fill-rule="evenodd" clip-rule="evenodd"/></clipPath></defs><g transform="translate(-5 -598)"><g clip-path="url(#clip0)"><path d="M216.666 92.0831 216.666 35.2082 198.52 53.354C180.375 37.1041 156.27 27.0833 130 27.0833 73.1248 27.0833 27.0833 73.1248 27.0833 130 27.0833 186.874 73.1248 232.916 130 232.916 158.437 232.916 184.166 221.27 202.854 202.854L179.833 179.833C167.104 192.562 149.5 200.416 130 200.416 91.2706 200.416 59.5832 168.729 59.5832 130 59.5832 91.2706 91.2706 59.5832 130 59.5832 147.333 59.5832 163.312 65.8123 175.5 76.3748L159.791 92.0831 216.666 92.0831Z" fill="#4A543E" transform="matrix(1 0 0 1 5.00016 598)"/></g></g></svg>