<svg width="260" height="260" xmlns="http://www.w3.org/2000/svg" xmlns:xlink="http://www.w3.org/1999/xlink" xml:space="preserve" overflow="hidden"><defs><clipPath id="clip0"><path d="M0 1715C-4.13769e-15 1700.64 11.6406 1689 26 1689L234 1689C248.359 1689 260 1700.64 260 1715L260 1923C260 1937.36 248.359 1949 234 1949L26 1949C11.6406 1949-4.13769e-15 1937.36 0 1923Z" fill-rule="evenodd" clip-rule="evenodd"/></clipPath></defs><g transform="matrix(1 0 0 1 0 -1689)"><g clip-path="url(#clip0)"><path d="M205.833 48.75C205.833 60.7161 171.882 70.4166 130 70.4166 88.1184 70.4166 54.1666 60.7161 54.1666 48.75 54.1666 36.7838 88.1184 27.0833 130 27.0833 171.882 27.0833 205.833 36.7838 205.833 48.75Z" fill="#4A543E" transform="matrix(1 0 0 1 -1.03448e-30 1689)"/><path d="M184.167 102.917C180.917 102.917 178.75 100.75 178.75 97.5 178.75 94.25 180.917 92.0833 184.167 92.0833 187.417 92.0833 189.583 94.25 189.583 97.5 189.583 100.75 187.417 102.917 184.167 102.917ZM130 81.25C88.2916 81.25 54.1666 71.5 54.1666 59.5833L54.1666 102.917C54.1666 114.833 88.2916 124.583 130 124.583 171.708 124.583 205.833 114.833 205.833 102.917L205.833 59.5833C205.833 71.5 171.708 81.25 130 81.25Z" fill="#4A543E" transform="matrix(1 0 0 1 -1.03448e-30 1689)"/><path d="M184.167 157.083C180.917 157.083 178.75 154.917 178.75 151.667 178.75 148.417 180.917 146.25 184.167 146.25 187.417 146.25 189.583 148.417 189.583 151.667 189.583 154.917 187.417 157.083 184.167 157.083ZM130 135.417C88.2916 135.417 54.1666 125.667 54.1666 113.75L54.1666 157.083C54.1666 169 88.2916 178.75 130 178.75 171.708 178.75 205.833 169 205.833 157.083L205.833 113.75C205.833 125.667 171.708 135.417 130 135.417Z" fill="#4A543E" transform="matrix(1 0 0 1 -1.03448e-30 1689)"/><path d="M184.167 211.25C180.917 211.25 178.75 209.083 178.75 205.833 178.75 202.583 180.917 200.417 184.167 200.417 187.417 200.417 189.583 202.583 189.583 205.833 189.583 209.083 187.417 211.25 184.167 211.25ZM130 189.583C88.2916 189.583 54.1666 179.833 54.1666 167.917L54.1666 211.25C54.1666 223.167 88.2916 232.917 130 232.917 171.708 232.917 205.833 223.167 205.833 211.25L205.833 167.917C205.833 179.833 171.708 189.583 130 189.583Z" fill="#4A543E" transform="matrix(1 0 0 1 -1.03448e-30 1689)"/></g></g></svg>