<svg width="260" height="260" xmlns="http://www.w3.org/2000/svg" xmlns:xlink="http://www.w3.org/1999/xlink" xml:space="preserve" overflow="hidden"><defs><clipPath id="clip0"><path d="M14.0001 1396C14.0001 1381.64 25.6407 1370 40.0001 1370L248 1370C262.359 1370 274 1381.64 274 1396L274 1604C274 1618.36 262.359 1630 248 1630L40.0001 1630C25.6407 1630 14.0001 1618.36 14.0001 1604Z" fill-rule="evenodd" clip-rule="evenodd"/></clipPath></defs><g transform="translate(-14 -1370)"><g clip-path="url(#clip0)"><path d="M184.167 81.7916C177.667 81.7916 172.25 76.375 172.521 69.6041 172.521 63.1041 177.937 57.6875 184.437 57.6875 190.937 57.6875 196.354 63.1041 196.354 69.6041 196.354 72.8541 195 75.8333 192.833 78 190.396 80.4375 187.417 81.7916 184.167 81.7916ZM172.521 44.1458C166.562 46.3125 161.958 50.9166 158.979 56.3333 155.187 63.6458 154.646 72.0416 157.625 79.625L170.625 107.792 179.292 125.667C180.104 127.562 182 128.646 184.167 128.646 186.333 128.646 188.229 127.562 189.042 125.667L197.708 107.792 210.708 79.8958C212.062 76.6458 212.604 73.125 212.604 69.6041 212.604 50.6458 193.104 36.2916 172.521 44.1458Z" fill="#644030" transform="matrix(1 0 0 1 14.0001 1370)"/><path d="M124.583 197.167 81.25 175.5 81.25 87.2083 124.583 108.875 124.583 197.167ZM70.4166 175.5 37.9166 191.75 37.9166 103.458 70.4166 87.2083 70.4166 175.5ZM220.458 84.5 220.458 84.5 213.687 99.1249 222.083 103.458 222.083 191.75 189.583 175.5 189.583 139.479 178.75 139.479 178.75 175.5 135.417 197.167 135.417 108.875 154.646 99.1249 147.875 84.5 130 93.4375 75.8333 66.3541 21.6667 93.4375 21.6667 218.021 75.8333 190.937 130 218.021 184.167 190.937 238.333 218.021 238.333 93.4375 220.458 84.5Z" fill="#644030" transform="matrix(1 0 0 1 14.0001 1370)"/></g></g></svg>