<svg width="259" height="259" xmlns="http://www.w3.org/2000/svg" xmlns:xlink="http://www.w3.org/1999/xlink" xml:space="preserve" overflow="hidden"><defs><clipPath id="clip0"><path d="M983 543.9C983 529.596 994.596 518 1008.9 518L1216.1 518C1230.4 518 1242 529.596 1242 543.9L1242 751.099C1242 765.404 1230.4 776.999 1216.1 776.999L1008.9 776.999C994.596 776.999 983 765.404 983 751.099Z" fill-rule="evenodd" clip-rule="evenodd"/></clipPath></defs><g transform="translate(-983 -518)"><g clip-path="url(#clip0)"><path d="M247.398 196.408 193.44 110.075C192.361 108.456 190.742 107.647 188.854 107.647 186.965 107.647 185.346 108.726 184.267 110.075L168.35 135.435 202.343 190.472C205.311 194.789 205.85 200.185 203.962 205.041L242.272 205.041C244.431 205.041 246.319 203.962 247.398 202.073 248.477 200.185 248.477 198.027 247.398 196.408L247.398 196.408Z" stroke="#644030" stroke-width="2.69791" fill="#644030" transform="matrix(1 0 0 1 983 518)"/><path d="M116.28 116.28 102.521 128.69 88.7612 116.55 62.8613 132.198 102.521 67.4477 142.18 132.198 116.28 116.28ZM193.17 196.408 107.107 56.3863C106.028 55.0373 104.409 53.9582 102.521 53.9582 100.632 53.9582 99.0133 54.7676 97.9341 56.3863L11.8708 196.408C10.5218 198.027 10.5218 200.455 11.3312 202.343 12.4104 203.962 14.2989 205.041 16.4572 205.041L188.584 205.041C190.742 205.041 192.631 203.962 193.71 202.073 194.519 200.185 194.519 198.027 193.17 196.408Z" stroke="#644030" stroke-width="2.69791" fill="#644030" transform="matrix(1 0 0 1 983 518)"/></g></g></svg>