<svg width="280" height="280" xmlns="http://www.w3.org/2000/svg" xmlns:xlink="http://www.w3.org/1999/xlink" xml:space="preserve" overflow="hidden"><g transform="translate(-3020 -723)"><path d="M3160 769.667C3108.37 769.667 3066.67 811.375 3066.67 863 3066.67 914.625 3108.37 956.333 3160 956.333 3211.62 956.333 3253.33 914.625 3253.33 863 3253.33 811.375 3211.62 769.667 3160 769.667ZM3160 973.833C3098.75 973.833 3049.17 924.25 3049.17 863 3049.17 801.75 3098.75 752.167 3160 752.167 3221.25 752.167 3270.83 801.75 3270.83 863 3270.83 924.25 3221.25 973.833 3160 973.833Z" fill="#AB620E"/><path d="M3218.33 839.667 3183.33 839.667 3183.33 804.667C3183.33 798.25 3178.08 793 3171.67 793L3148.33 793C3141.92 793 3136.67 798.25 3136.67 804.667L3136.67 839.667 3101.67 839.667C3095.25 839.667 3090 844.917 3090 851.333L3090 874.667C3090 881.083 3095.25 886.333 3101.67 886.333L3136.67 886.333 3136.67 921.333C3136.67 927.75 3141.92 933 3148.33 933L3171.67 933C3178.08 933 3183.33 927.75 3183.33 921.333L3183.33 886.333 3218.33 886.333C3224.75 886.333 3230 881.083 3230 874.667L3230 851.333C3230 844.917 3224.75 839.667 3218.33 839.667Z" fill="#AB620E"/></g></svg>