<svg width="260" height="260" xmlns="http://www.w3.org/2000/svg" xmlns:xlink="http://www.w3.org/1999/xlink" xml:space="preserve" overflow="hidden"><defs><clipPath id="clip0"><path d="M14.0001 1164C14.0001 1149.64 25.6407 1138 40.0001 1138L248 1138C262.359 1138 274 1149.64 274 1164L274 1372C274 1386.36 262.359 1398 248 1398L40.0001 1398C25.6407 1398 14.0001 1386.36 14.0001 1372Z" fill-rule="evenodd" clip-rule="evenodd"/></clipPath></defs><g transform="translate(-14 -1138)"><g clip-path="url(#clip0)"><path d="M178.75 216.666 81.2498 216.666 81.2498 43.3332 178.75 43.3332 178.75 216.666ZM119.166 21.6666 140.833 21.6666C143.812 21.6666 146.25 24.1041 146.25 27.0833 146.25 30.0624 143.812 32.4999 140.833 32.4999L119.166 32.4999C116.187 32.4999 113.75 30.0624 113.75 27.0833 113.75 24.1041 116.187 21.6666 119.166 21.6666ZM189.583 10.8333 70.4165 10.8333C67.4373 10.8333 64.9998 13.2708 64.9998 16.25L64.9998 243.749C64.9998 246.729 67.4373 249.166 70.4165 249.166L189.583 249.166C192.562 249.166 194.999 246.729 194.999 243.749L194.999 16.25C194.999 13.2708 192.562 10.8333 189.583 10.8333Z" fill="#746241" transform="matrix(1 0 0 1 14.0001 1138)"/></g></g></svg>