<svg width="280" height="280" xmlns="http://www.w3.org/2000/svg" xmlns:xlink="http://www.w3.org/1999/xlink" xml:space="preserve" overflow="hidden"><g transform="translate(-1100 -1472)"><path d="M1308.63 1705.01C1295.07 1712.3 1277.1 1712.71 1262.52 1708.98 1253.27 1706.62 1245.19 1701.51 1235.89 1699.18 1224.1 1696.27 1211.84 1695.79 1199.87 1697.78 1209.27 1675.3 1212.61 1650.75 1209.55 1626.58L1272.08 1626.58 1272.08 1609.08 1206.37 1609.08C1204.55 1602.7 1203.23 1596.19 1202.43 1589.6 1201.81 1582.64 1202.01 1575.63 1203.02 1568.72 1204.61 1557.19 1208.88 1546.2 1215.5 1536.63 1221.31 1528 1229.7 1521.42 1239.48 1517.85 1249.41 1514.78 1260.08 1515.06 1269.84 1518.67 1281.65 1522.95 1290.08 1532.46 1296.09 1543.25L1311.46 1534.88C1305.06 1522.32 1295.04 1511.95 1282.7 1505.13 1270.41 1498.98 1256.5 1496.81 1242.92 1498.92 1215.73 1503.27 1196.25 1527.01 1188.73 1552.21 1183.2 1570.75 1183.06 1590.47 1188.32 1609.08L1158.33 1609.08 1158.33 1626.58 1191.93 1626.58C1194.3 1643.81 1193.07 1661.34 1188.32 1678.06 1184.73 1689.97 1179.12 1701.17 1171.72 1711.17L1164.49 1721.38C1170.96 1721.38 1177.47 1721.38 1183.97 1721.38 1201.53 1712.31 1222.2 1711.48 1240.44 1719.1 1244.73 1720.88 1248.69 1723.07 1253.15 1724.5 1265.76 1728.53 1279.1 1729.68 1292.21 1727.85 1300.96 1726.89 1309.46 1724.3 1317.26 1720.21Z" fill="#AB620E"/></g></svg>