<svg width="280" height="280" xmlns="http://www.w3.org/2000/svg" xmlns:xlink="http://www.w3.org/1999/xlink" xml:space="preserve" overflow="hidden"><g transform="translate(-1100 -723)"><path d="M1368.33 863C1368.33 856.583 1363.08 851.333 1356.67 851.333 1354.33 851.333 1352.29 851.917 1350.54 853.083L1300.67 881.667C1301.25 884.875 1301.25 888.083 1300.67 891.583 1298.33 902.375 1288.13 909.667 1277.04 909.667L1225.42 909.667 1225.42 898 1277.92 898C1284.33 898 1289.58 892.75 1289.58 886.333 1289.58 879.917 1284.33 874.667 1277.92 874.667 1277.92 874.667 1208.5 874.667 1207.92 874.667 1202.96 874.667 1198.29 876.125 1194.21 878.458L1111.67 918.417 1152.5 959.25C1171.46 940.292 1195.96 933 1222.5 933L1277.04 933C1279.67 933 1282 932.125 1284.04 930.667L1364.25 872.042C1366.58 869.708 1368.33 866.5 1368.33 863Z" fill="#AB620E"/><path d="M1327.79 767.333C1327.79 767.333 1291.63 762.667 1272.38 781.917 1258.38 795.917 1256.92 818.375 1257.21 830.042 1251.08 834.417 1245.83 840.833 1242.33 848.417 1241.46 847.25 1240.88 846.083 1240 844.917 1240.29 835.292 1238.83 816.917 1227.46 805.542 1211.42 789.5 1181.67 793.583 1181.67 793.583 1181.67 793.583 1177.88 823.333 1193.62 839.375 1203.83 849.583 1220.17 851.625 1230.08 851.917 1233 855.125 1235.04 859.792 1236.5 863.875 1236.79 864.75 1237.08 866.792 1237.08 869.417L1249.04 869.417C1249.33 863.292 1250.21 859.792 1252.54 854.833 1255.46 847.833 1260.42 842 1266.25 838.5 1278.21 838.792 1299.79 836.75 1313.21 823.333 1332.46 803.5 1327.79 767.333 1327.79 767.333Z" fill="#AB620E"/></g></svg>