<svg width="260" height="260" xmlns="http://www.w3.org/2000/svg" xmlns:xlink="http://www.w3.org/1999/xlink" xml:space="preserve" overflow="hidden"><defs><clipPath id="clip0"><path d="M14.0001 2263C14.0001 2248.64 25.6407 2237 40.0001 2237L248 2237C262.359 2237 274 2248.64 274 2263L274 2471C274 2485.36 262.359 2497 248 2497L40.0001 2497C25.6407 2497 14.0001 2485.36 14.0001 2471Z" fill-rule="evenodd" clip-rule="evenodd"/></clipPath></defs><g transform="translate(-14 -2237)"><g clip-path="url(#clip0)"><path d="M224.52 105.896C223.708 105.896 222.895 105.896 222.083 105.896L215.041 86.9373C231.291 77.729 236.979 57.1457 228.041 40.8957 218.833 24.6458 198.249 18.9583 182 27.8958 174.145 32.2291 168.187 39.8124 166.02 48.479L140.833 45.7707C138.937 33.8541 127.833 25.4583 115.916 27.3541 105.083 28.9791 97.2289 38.1874 97.2289 49.0207 97.2289 52.8124 98.3122 56.604 100.208 60.1248L69.8748 89.9164C64.1873 85.5831 57.1457 83.1456 49.8332 83.1456 31.1458 83.1456 15.9791 98.3122 15.9791 117 15.9791 135.687 31.1458 150.854 49.8332 150.854L56.604 191.479C45.4999 196.354 40.3541 209.354 45.229 220.458 50.104 231.562 63.104 236.708 74.2081 231.833 84.4998 227.499 89.6456 216.124 86.6664 205.291L110.5 192.833C125.937 209.895 152.479 211.249 169.812 195.812 178.479 187.958 183.625 176.583 183.625 164.937 183.625 161.958 183.354 158.708 182.541 155.729L208.812 142.187C216.937 151.395 230.749 152.208 239.958 144.083 249.166 135.958 249.979 122.146 241.854 112.937 236.708 108.604 230.749 105.896 224.52 105.896L224.52 105.896ZM224.52 114.021C228.041 114.021 230.749 116.729 230.749 120.25 230.749 123.771 228.041 126.479 224.52 126.479 220.999 126.479 218.291 123.771 218.291 120.25 218.291 120.25 218.291 120.25 218.291 120.25 218.291 116.729 220.999 114.021 224.52 114.021L224.52 114.021ZM198.52 36.8332C203.666 36.8332 207.999 41.1666 207.999 46.3124 207.999 51.4582 203.666 55.7915 198.52 55.7915 193.374 55.7915 189.041 51.4582 189.041 46.3124 189.041 46.3124 189.041 46.3124 189.041 46.3124 189.041 41.1666 193.104 36.8332 198.52 36.8332ZM179.291 67.7082C179.291 66.354 180.104 64.729 181.187 63.9165 183.895 62.0207 187.145 60.3957 190.395 59.5832 192.833 58.7707 195.541 58.4998 198.249 58.4998 200.958 58.4998 203.666 59.0415 206.104 59.5832 209.354 60.3957 212.604 62.0207 215.312 64.1873 216.395 64.9998 217.208 66.6248 217.208 67.979L217.208 75.2915 179.291 75.2915 179.291 67.7082ZM118.896 35.2082C122.416 35.2082 125.125 37.9166 125.125 41.4374 125.125 44.9582 122.416 47.6665 118.896 47.6665 115.375 47.6665 112.666 44.9582 112.666 41.4374 112.666 41.4374 112.666 41.4374 112.666 41.4374 112.666 38.1874 115.375 35.2082 118.896 35.2082L118.896 35.2082ZM106.166 55.5207C106.166 54.4374 106.708 53.6249 107.521 53.0832 109.416 51.729 111.583 50.9165 113.75 50.3749 115.375 49.8332 117.271 49.5624 118.896 49.5624 120.521 49.5624 122.416 49.8332 124.041 50.3749 126.208 50.9165 128.104 51.9999 130 53.354 130.812 53.8957 131.354 54.979 131.354 55.7915L131.354 60.6665 106.437 60.6665 106.437 55.5207ZM49.2915 96.4164C54.4374 96.4164 58.7707 100.75 58.7707 105.896 58.7707 111.041 54.4374 115.375 49.2915 115.375 44.1457 115.375 39.8124 111.041 39.8124 105.896 39.8124 105.896 39.8124 105.896 39.8124 105.896 40.0832 100.75 44.1457 96.4164 49.2915 96.4164L49.2915 96.4164ZM30.3333 134.604 30.3333 127.291C30.3333 125.937 31.1458 124.312 32.2291 123.5 34.9374 121.604 38.1874 119.979 41.4374 119.166 43.8749 118.354 46.5832 118.083 49.2915 118.083 51.9999 118.083 54.7082 118.625 57.1457 119.166 60.3957 119.979 63.6457 121.604 66.354 123.771 67.4373 124.583 68.2498 126.208 68.2498 127.562L68.2498 134.875 30.3333 134.604ZM77.1873 222.895 51.9999 222.895 51.9999 218.02C51.9999 216.937 52.5415 216.124 53.354 215.583 55.2499 214.229 57.4165 213.145 59.5832 212.604 61.2082 212.062 63.104 211.791 64.729 211.791 66.354 211.791 68.2498 212.062 69.8748 212.604 72.0415 213.145 73.9373 214.229 75.8331 215.583 76.6456 216.124 77.1873 217.208 77.1873 218.02L77.1873 222.895ZM58.229 203.937C58.229 200.416 60.9373 197.708 64.4582 197.708 67.979 197.708 70.6873 200.416 70.6873 203.937 70.6873 207.458 67.979 210.166 64.4582 210.166 61.2082 210.437 58.4998 207.458 58.229 203.937L58.229 203.937ZM79.8956 196.354C76.3748 192.833 71.4998 190.666 66.6248 190.124L59.854 149.5C66.354 147.333 72.0415 143.27 76.104 137.854L101.291 151.125C97.2289 161.958 98.0414 174.145 103.458 184.437L79.8956 196.354ZM106.437 141.104 81.5206 128.104C82.6039 124.583 83.1456 121.062 83.1456 117.271 83.1456 110.229 80.979 103.458 76.9165 97.7706L107.25 68.2498C117.541 74.479 131.083 71.4998 137.312 61.2082 138.125 59.854 138.666 58.4998 139.208 57.1457L164.395 59.854C164.937 69.604 169.812 78.8123 177.666 84.7706L155.458 126.208C137.854 119.166 117.541 125.396 106.437 141.104L106.437 141.104ZM152.479 151.125C152.479 157.625 147.062 162.77 140.562 162.77 134.062 162.77 128.916 157.625 128.916 151.125 128.916 144.625 134.062 139.479 140.562 139.479 140.562 139.479 140.562 139.479 140.833 139.479 147.333 139.479 152.479 144.625 152.479 151.125L152.479 151.125ZM164.125 186.604 117.271 186.604 117.271 177.666C117.271 175.77 118.083 174.145 119.708 173.062 123.229 170.625 127.021 168.729 131.083 167.375 134.333 166.562 137.583 166.02 140.833 166.02 144.083 166.02 147.333 166.562 150.583 167.375 154.645 168.458 158.708 170.354 161.958 173.062 163.312 174.145 164.395 176.041 164.395 177.666L164.125 186.604ZM202.583 128.104C202.583 129.729 202.854 131.354 203.395 132.979L178.479 145.979C175.5 140.02 170.895 135.145 165.479 131.354L187.687 89.9164C191.208 91.2706 194.999 91.8123 198.791 91.8123 200.958 91.8123 203.124 91.5414 205.291 91.2706L212.333 110.229C205.833 114.021 202.312 120.791 202.583 128.104ZM236.979 138.937 211.791 138.937 211.791 134.062C211.791 132.979 212.333 132.166 213.145 131.625 215.041 130.27 217.208 129.187 219.374 128.645 220.999 128.104 222.895 127.833 224.52 127.833 226.145 127.833 228.041 128.104 229.666 128.645 231.833 129.187 233.729 130.27 235.624 131.625 236.437 132.166 236.979 133.25 236.979 134.062L236.979 138.937Z" fill="#746241" transform="matrix(1 0 0 1 14.0001 2237)"/></g></g></svg>