<svg width="280" height="280" xmlns="http://www.w3.org/2000/svg" xmlns:xlink="http://www.w3.org/1999/xlink" xml:space="preserve" overflow="hidden"><g transform="translate(-3020 -1472)"><path d="M3262.08 1544.92C3262.08 1552.97 3255.55 1559.5 3247.5 1559.5 3239.45 1559.5 3232.92 1552.97 3232.92 1544.92 3232.92 1536.86 3239.45 1530.33 3247.5 1530.33 3255.55 1530.33 3262.08 1536.86 3262.08 1544.92Z" fill="#AB620E"/><path d="M3087.08 1544.92C3087.08 1552.97 3080.55 1559.5 3072.5 1559.5 3064.45 1559.5 3057.92 1552.97 3057.92 1544.92 3057.92 1536.86 3064.45 1530.33 3072.5 1530.33 3080.55 1530.33 3087.08 1536.86 3087.08 1544.92Z" fill="#AB620E"/><path d="M3203.75 1544.92C3203.75 1552.97 3197.22 1559.5 3189.17 1559.5 3181.11 1559.5 3174.58 1552.97 3174.58 1544.92 3174.58 1536.86 3181.11 1530.33 3189.17 1530.33 3197.22 1530.33 3203.75 1536.86 3203.75 1544.92Z" fill="#AB620E"/><path d="M3145.42 1544.92C3145.42 1552.97 3138.89 1559.5 3130.83 1559.5 3122.78 1559.5 3116.25 1552.97 3116.25 1544.92 3116.25 1536.86 3122.78 1530.33 3130.83 1530.33 3138.89 1530.33 3145.42 1536.86 3145.42 1544.92Z" fill="#AB620E"/><path d="M3282.21 1616.38 3272.88 1573.79C3272.58 1572.62 3272 1571.46 3270.83 1570.58 3267.33 1567.96 3263.54 1565.62 3259.17 1564.46 3255.38 1563.29 3251.58 1562.42 3247.5 1562.42 3243.42 1562.42 3239.33 1563 3235.83 1564.46 3231.46 1565.92 3227.67 1567.96 3224.17 1570.58 3223 1571.46 3222.42 1572.62 3222.12 1573.79L3218.33 1591 3218.33 1591 3214.54 1573.79C3214.25 1572.62 3213.67 1571.46 3212.5 1570.58 3209 1567.96 3205.21 1565.62 3200.83 1564.46 3197.04 1563.29 3193.25 1562.42 3189.17 1562.42 3185.08 1562.42 3181 1563 3177.5 1564.46 3173.12 1565.92 3169.33 1567.96 3165.83 1570.58 3164.67 1571.46 3164.08 1572.62 3163.79 1573.79L3160 1590.71 3160 1591 3156.21 1573.79C3155.92 1572.62 3155.33 1571.46 3154.17 1570.58 3150.67 1567.96 3146.87 1565.62 3142.5 1564.46 3138.71 1563.29 3134.92 1562.42 3130.83 1562.42 3126.75 1562.42 3122.67 1563 3119.17 1564.46 3114.79 1565.92 3111 1567.96 3107.5 1570.58 3106.33 1571.46 3105.75 1572.62 3105.46 1573.79L3101.67 1590.71 3101.67 1590.71 3097.87 1573.79C3097.58 1572.62 3097 1571.46 3095.83 1570.58 3092.33 1567.96 3088.54 1565.62 3084.17 1564.46 3080.37 1563.29 3076.58 1562.42 3072.5 1562.42 3068.42 1562.42 3064.33 1563 3060.83 1564.46 3056.46 1565.92 3052.67 1567.96 3049.17 1570.58 3048 1571.46 3047.42 1572.62 3047.12 1573.79L3037.79 1616.08C3036.92 1619.29 3038.96 1622.79 3042.46 1623.38 3042.75 1623.38 3043.04 1623.38 3043.33 1623.38 3045.96 1623.38 3048.29 1621.62 3049.17 1618.71L3057.92 1579.92 3057.92 1600.62 3049.17 1644.08 3057.92 1644.08 3057.92 1693.67 3069.58 1693.67 3069.58 1644.08 3075.42 1644.08 3075.42 1693.67 3087.08 1693.67 3087.08 1644.08 3095.83 1644.08 3087.08 1600.62 3087.08 1579.92 3095.83 1619C3096.42 1621.62 3098.75 1623.67 3101.37 1623.67L3101.37 1623.67C3104 1623.67 3106.33 1621.92 3106.92 1619L3116.25 1579.92 3116.25 1626.58 3116.25 1693.67 3127.92 1693.67 3127.92 1626.58 3133.75 1626.58 3133.75 1693.67 3145.42 1693.67 3145.42 1626.58 3145.42 1579.92 3154.17 1619C3154.75 1621.62 3157.08 1623.67 3160 1623.67 3160 1623.67 3160 1623.67 3160 1623.67L3160 1623.67C3162.62 1623.67 3164.96 1621.92 3165.54 1619L3174.58 1579.92 3174.58 1600.92 3165.83 1644.08 3174.58 1644.08 3174.58 1693.67 3186.25 1693.67 3186.25 1644.08 3192.08 1644.08 3192.08 1693.67 3203.75 1693.67 3203.75 1644.08 3212.5 1644.08 3203.75 1600.33 3203.75 1579.92 3212.5 1619C3213.08 1621.62 3215.42 1623.67 3218.33 1623.67 3218.33 1623.67 3218.33 1623.67 3218.33 1623.67L3218.33 1623.67C3218.33 1623.67 3218.33 1623.67 3218.33 1623.67 3220.96 1623.67 3223.29 1621.92 3224.17 1619L3232.92 1579.92 3232.92 1626.58 3232.92 1693.67 3244.58 1693.67 3244.58 1626.58 3250.42 1626.58 3250.42 1693.67 3262.08 1693.67 3262.08 1626.58 3262.08 1579.92 3270.83 1619C3271.42 1621.62 3273.75 1623.67 3276.67 1623.67 3277.25 1623.67 3278.12 1623.67 3278.71 1623.38 3281.33 1622.21 3282.79 1619.29 3282.21 1616.38Z" fill="#AB620E"/></g></svg>